<svg width="51" height="52" viewBox="0 0 51 52" fill="none" xmlns="http://www.w3.org/2000/svg">
<rect x="0.707107" y="25.9434" width="34.9818" height="35" rx="17.4909" transform="rotate(-45 0.707107 25.9434)" stroke="white"/>
<path fill-rule="evenodd" clip-rule="evenodd" d="M26.9791 27.4662L34.5906 27.4662C34.9944 27.4662 35.3818 27.3058 35.6674 27.0202C35.953 26.7346 36.1134 26.3473 36.1134 25.9434C36.1134 25.5395 35.953 25.1521 35.6674 24.8665C35.3818 24.581 34.9944 24.4205 34.5906 24.4205L26.9777 24.4219L26.9784 16.8098C26.9784 16.6099 26.9389 16.4119 26.8624 16.2272C26.7858 16.0425 26.6736 15.8747 26.5322 15.7333C26.3908 15.592 26.223 15.4799 26.0382 15.4034C25.8535 15.3269 25.6555 15.2876 25.4556 15.2877C25.2556 15.2877 25.0576 15.3271 24.8729 15.4037C24.6882 15.4802 24.5204 15.5924 24.3791 15.7338C24.2377 15.8753 24.1256 16.0431 24.0492 16.2279C23.9727 16.4126 23.9334 16.6106 23.9334 16.8105L23.9341 24.4212L16.3227 24.4212C16.1206 24.4176 15.9198 24.4543 15.732 24.5291C15.5442 24.604 15.3732 24.7154 15.229 24.8571C15.0847 24.9987 14.9701 25.1676 14.8919 25.354C14.8136 25.5404 14.7733 25.7405 14.7732 25.9426C14.7731 26.1448 14.8132 26.3449 14.8913 26.5314C14.9694 26.7178 15.0838 26.8869 15.2279 27.0286C15.372 27.1704 15.5429 27.282 15.7307 27.3571C15.9184 27.4321 16.1191 27.4689 16.3213 27.4655L23.9348 27.4648L23.9348 35.0777C23.9314 35.2798 23.9683 35.4806 24.0433 35.6683C24.1183 35.856 24.23 36.0269 24.3717 36.171C24.5135 36.3151 24.6825 36.4295 24.869 36.5076C25.0554 36.5857 25.2556 36.6259 25.4577 36.6258C25.6599 36.6257 25.86 36.5853 26.0464 36.5071C26.2327 36.4288 26.4017 36.3142 26.5433 36.17C26.6849 36.0257 26.7964 35.8547 26.8712 35.6669C26.9461 35.4791 26.9827 35.2783 26.9791 35.0762L26.9791 27.4662Z" fill="#FDFAF3"/>
</svg>
