<svg width="31" height="31" viewBox="0 0 31 31" fill="none" xmlns="http://www.w3.org/2000/svg">
<path d="M15.5 0C24.0693 0 31 6.93071 31 15.5C31 24.0693 24.0693 31 15.5 31C6.93071 31 0 24.0693 0 15.5C0 6.93071 6.93071 0 15.5 0ZM12.6657 23.6707C19.53 23.6707 23.2943 17.98 23.2943 13.0421V12.555C24.025 12.0236 24.6671 11.3593 25.1543 10.6064C24.49 10.8943 23.7593 11.0936 23.0064 11.2043C23.7814 10.7393 24.3793 10.0086 24.645 9.145C23.9143 9.56571 23.1171 9.87571 22.2757 10.0529C21.5893 9.32214 20.615 8.87929 19.5521 8.87929C17.4929 8.87929 15.81 10.5621 15.81 12.6214C15.81 12.9093 15.8321 13.1971 15.9207 13.4629C12.8207 13.3079 10.0529 11.8243 8.215 9.56571C7.905 10.1193 7.70571 10.7614 7.70571 11.4479C7.70571 12.7321 8.37 13.8836 9.36643 14.5479C8.74643 14.5479 8.17071 14.3707 7.68357 14.0829V14.1271C7.68357 15.9429 8.96786 17.4486 10.6729 17.8029C10.3629 17.8914 10.0307 17.9357 9.69857 17.9357C9.455 17.9357 9.23357 17.9136 8.99 17.8693C9.455 19.3529 10.85 20.4379 12.4664 20.46C11.1821 21.4564 9.56571 22.0543 7.81643 22.0543C7.50643 22.0543 7.21857 22.0543 6.93071 22.01C8.56929 23.0729 10.54 23.6929 12.6436 23.6929" fill="black"/>
</svg>
