<svg width="35" height="31" viewBox="0 0 35 31" fill="none" xmlns="http://www.w3.org/2000/svg">
<path d="M33.399 7.51284C33.0174 6.0809 31.8929 4.95316 30.4651 4.57044C27.8772 3.875 17.4998 3.875 17.4998 3.875C17.4998 3.875 7.12258 3.875 4.53459 4.57044C3.10682 4.95322 1.98232 6.0809 1.60066 7.51284C0.907227 10.1083 0.907227 15.5235 0.907227 15.5235C0.907227 15.5235 0.907227 20.9387 1.60066 23.5341C1.98232 24.9661 3.10682 26.0468 4.53459 26.4296C7.12258 27.125 17.4998 27.125 17.4998 27.125C17.4998 27.125 27.8771 27.125 30.4651 26.4296C31.8929 26.0468 33.0174 24.9661 33.399 23.5341C34.0925 20.9387 34.0925 15.5235 34.0925 15.5235C34.0925 15.5235 34.0925 10.1083 33.399 7.51284ZM14.1059 20.4401V10.6069L22.7792 15.5236L14.1059 20.4401Z" fill="black"/>
</svg>
